<svg id="Layer_1" data-name="Layer 1" xmlns="http://www.w3.org/2000/svg" viewBox="0 0 151.1 87.93"><defs><style>.cls-1{fill:#5e5e5e;}.cls-2{fill:#e06800;}.cls-3{fill:none;}.cls-4{fill:#006361;}</style></defs><path class="cls-1" d="M237.17,140.47l1-.1v.28a1.69,1.69,0,0,0,.21.84,1.3,1.3,0,0,0,.7.59,2.9,2.9,0,0,0,1.16.21,2.26,2.26,0,0,0,1.45-.41,1.21,1.21,0,0,0,.5-1,1,1,0,0,0-.26-.68,5.19,5.19,0,0,0-1.48-.83,9.69,9.69,0,0,1-1.28-.62,2.43,2.43,0,0,1-.79-.77,1.75,1.75,0,0,1-.26-.94,2,2,0,0,1,.34-1.11,2,2,0,0,1,1-.75,4,4,0,0,1,1.46-.26,3.8,3.8,0,0,1,1.64.32,2.16,2.16,0,0,1,1.27,1.91,1.18,1.18,0,0,1,0,.16l-1,.08a1.88,1.88,0,0,0-.06-.53,1.25,1.25,0,0,0-.34-.55,1.51,1.51,0,0,0-.62-.37,2.77,2.77,0,0,0-.89-.14,2.09,2.09,0,0,0-1.35.39,1,1,0,0,0-.22,1.32,1.55,1.55,0,0,0,.55.45c.18.1.63.31,1.34.62a10.83,10.83,0,0,1,1.18.6,1.92,1.92,0,0,1,.66.7,1.79,1.79,0,0,1,.24.93,2,2,0,0,1-.4,1.19,2.55,2.55,0,0,1-1.08.84,4,4,0,0,1-1.59.3,3.81,3.81,0,0,1-2.2-.59A2.39,2.39,0,0,1,237.17,140.47Z" transform="translate(-237.13 -55.25)"/><path class="cls-1" d="M244.33,140.86a4,4,0,0,1,1-2.8,2.76,2.76,0,0,1,2.14-.91,2.26,2.26,0,0,1,1.68.65,2.44,2.44,0,0,1,.64,1.76,4.42,4.42,0,0,1-.4,1.85,3,3,0,0,1-1.15,1.31,2.93,2.93,0,0,1-1.55.45,2.54,2.54,0,0,1-1.23-.29,2,2,0,0,1-.84-.81A2.49,2.49,0,0,1,244.33,140.86Zm1-.1a1.75,1.75,0,0,0,.39,1.23,1.31,1.31,0,0,0,1,.42,1.71,1.71,0,0,0,.62-.12,1.81,1.81,0,0,0,.57-.39,2.73,2.73,0,0,0,.46-.6,4.09,4.09,0,0,0,.3-.71,3.57,3.57,0,0,0,.17-1,1.73,1.73,0,0,0-.4-1.22,1.3,1.3,0,0,0-1-.43,1.75,1.75,0,0,0-.84.22,2.27,2.27,0,0,0-.68.64,2.72,2.72,0,0,0-.45,1A3.91,3.91,0,0,0,245.31,140.76Z" transform="translate(-237.13 -55.25)"/><path class="cls-1" d="M250.26,143l1.66-7.95h1L251.24,143Z" transform="translate(-237.13 -55.25)"/><path class="cls-1" d="M256.73,142a2.9,2.9,0,0,1-2.12,1.17,1.56,1.56,0,0,1-1.08-.38,1.25,1.25,0,0,1-.4-.94,7.29,7.29,0,0,1,.18-1.24l.69-3.33h1l-.76,3.68a3.44,3.44,0,0,0-.1.72.63.63,0,0,0,.2.51.82.82,0,0,0,.58.18,1.79,1.79,0,0,0,.8-.2,2.39,2.39,0,0,0,.68-.54,2.67,2.67,0,0,0,.46-.81,6.52,6.52,0,0,0,.28-1l.52-2.49h1l-1.2,5.76h-.91Z" transform="translate(-237.13 -55.25)"/><path class="cls-1" d="M261.27,142.24l-.17.81a2.71,2.71,0,0,1-.68.09,1.42,1.42,0,0,1-.93-.29.73.73,0,0,1-.26-.59,6.28,6.28,0,0,1,.14-.87l.7-3.35h-.78l.16-.76h.78l.29-1.41,1.13-.68-.44,2.09h1L262,138h-1l-.67,3.18a6.34,6.34,0,0,0-.12.73.33.33,0,0,0,.1.27.5.5,0,0,0,.33.09A2.1,2.1,0,0,0,261.27,142.24Z" transform="translate(-237.13 -55.25)"/><path class="cls-1" d="M262,143l1.2-5.76h1L263,143Zm1.43-6.83.24-1.12h1l-.23,1.12Z" transform="translate(-237.13 -55.25)"/><path class="cls-1" d="M264.7,140.86a4,4,0,0,1,1-2.8,2.78,2.78,0,0,1,2.15-.91,2.28,2.28,0,0,1,1.68.65,2.43,2.43,0,0,1,.63,1.76,4.27,4.27,0,0,1-.4,1.85,3,3,0,0,1-1.14,1.31,2.94,2.94,0,0,1-1.56.45,2.5,2.5,0,0,1-1.22-.29,1.94,1.94,0,0,1-.84-.81A2.49,2.49,0,0,1,264.7,140.86Zm1-.1a1.75,1.75,0,0,0,.39,1.23,1.29,1.29,0,0,0,1,.42,1.76,1.76,0,0,0,.63-.12,2.07,2.07,0,0,0,.57-.39,2.42,2.42,0,0,0,.45-.6,3,3,0,0,0,.3-.71,3.26,3.26,0,0,0,.17-1,1.77,1.77,0,0,0-.39-1.22,1.3,1.3,0,0,0-1-.43,1.7,1.7,0,0,0-.84.22,2.43,2.43,0,0,0-.69.64,3.09,3.09,0,0,0-.45,1A4.35,4.35,0,0,0,265.68,140.76Z" transform="translate(-237.13 -55.25)"/><path class="cls-1" d="M270.7,143l1.2-5.76h.89l-.21,1a4.86,4.86,0,0,1,1.09-.87,2.1,2.1,0,0,1,1-.27,1.53,1.53,0,0,1,1.1.38,1.33,1.33,0,0,1,.4,1,6.1,6.1,0,0,1-.14,1l-.73,3.48h-1l.76-3.65a3.89,3.89,0,0,0,.12-.78.62.62,0,0,0-.2-.47.83.83,0,0,0-.57-.18,2,2,0,0,0-1.35.54,3.51,3.51,0,0,0-.86,1.86l-.56,2.68Z" transform="translate(-237.13 -55.25)"/><path class="cls-1" d="M280.07,143l1.66-7.95h3.32a3.28,3.28,0,0,1,1.29.2,1.55,1.55,0,0,1,.71.68,2.08,2.08,0,0,1,.29,1.08,2.89,2.89,0,0,1-.71,1.84,2.48,2.48,0,0,1-.62.5,3.18,3.18,0,0,1-.67.25,6.77,6.77,0,0,1-1.55.18h-2l-.67,3.22Zm1.92-4.12h1.75a3.94,3.94,0,0,0,1.5-.22,1.84,1.84,0,0,0,1.05-1.63,1.18,1.18,0,0,0-.15-.63.91.91,0,0,0-.43-.37,3.44,3.44,0,0,0-1.06-.11h-2Z" transform="translate(-237.13 -55.25)"/><path class="cls-1" d="M287.36,143l1.21-5.76h.86l-.24,1.18a4.43,4.43,0,0,1,.87-1,1.44,1.44,0,0,1,.87-.32,1.57,1.57,0,0,1,.72.22l-.4.91a.9.9,0,0,0-.56-.19,1.52,1.52,0,0,0-1.06.58,4.4,4.4,0,0,0-.85,2.06L288.3,143Z" transform="translate(-237.13 -55.25)"/><path class="cls-1" d="M291.23,140.86a4,4,0,0,1,1-2.8,2.76,2.76,0,0,1,2.14-.91,2.26,2.26,0,0,1,1.68.65,2.44,2.44,0,0,1,.64,1.76,4.42,4.42,0,0,1-.4,1.85,3,3,0,0,1-1.15,1.31,2.93,2.93,0,0,1-1.55.45,2.54,2.54,0,0,1-1.23-.29,2,2,0,0,1-.84-.81A2.49,2.49,0,0,1,291.23,140.86Zm1-.1a1.75,1.75,0,0,0,.39,1.23,1.33,1.33,0,0,0,1,.42,1.71,1.71,0,0,0,.62-.12,1.81,1.81,0,0,0,.57-.39,2.73,2.73,0,0,0,.46-.6,4.09,4.09,0,0,0,.3-.71,3.57,3.57,0,0,0,.17-1,1.73,1.73,0,0,0-.4-1.22,1.3,1.3,0,0,0-1-.43,1.75,1.75,0,0,0-.84.22,2.27,2.27,0,0,0-.68.64,2.72,2.72,0,0,0-.45,1A3.91,3.91,0,0,0,292.21,140.76Z" transform="translate(-237.13 -55.25)"/><path class="cls-1" d="M298.69,143l-.95-5.76h1l.49,3.18c.06.34.12.91.2,1.69.19-.41.43-.87.72-1.4l1.93-3.47h1L299.78,143Z" transform="translate(-237.13 -55.25)"/><path class="cls-1" d="M302.75,143l1.2-5.76h1l-1.2,5.76Zm1.43-6.83.23-1.12h1l-.24,1.12Z" transform="translate(-237.13 -55.25)"/><path class="cls-1" d="M309.13,142.21a2.36,2.36,0,0,1-1.75,1,1.78,1.78,0,0,1-1.37-.6,2.57,2.57,0,0,1-.54-1.76,4.23,4.23,0,0,1,.43-1.92,3.29,3.29,0,0,1,1.08-1.3,2.31,2.31,0,0,1,1.3-.44,1.76,1.76,0,0,1,1.62,1l.65-3.1h1L309.86,143H309Zm-2.69-1.58a3,3,0,0,0,.12,1,1.23,1.23,0,0,0,.41.57,1,1,0,0,0,.69.23,1.55,1.55,0,0,0,1.21-.69,3.57,3.57,0,0,0,.72-2.28,1.52,1.52,0,0,0-.35-1.06,1.17,1.17,0,0,0-.9-.39,1.31,1.31,0,0,0-.65.16,1.84,1.84,0,0,0-.57.53,3.92,3.92,0,0,0-.68,2Z" transform="translate(-237.13 -55.25)"/><path class="cls-1" d="M315.65,141.08l1,.1a2.81,2.81,0,0,1-.95,1.35,2.58,2.58,0,0,1-1.76.64,2.48,2.48,0,0,1-1.18-.29,2,2,0,0,1-.81-.86,2.84,2.84,0,0,1-.28-1.29,4.11,4.11,0,0,1,.44-1.83,3.07,3.07,0,0,1,1.13-1.31,2.76,2.76,0,0,1,1.5-.44,2.21,2.21,0,0,1,1.65.64,2.42,2.42,0,0,1,.61,1.75,4.4,4.4,0,0,1-.08.87h-4.23a1.69,1.69,0,0,0,0,.3,1.84,1.84,0,0,0,.37,1.23,1.16,1.16,0,0,0,.91.43,1.78,1.78,0,0,0,1-.33A2.16,2.16,0,0,0,315.65,141.08Zm-2.85-1.42H316a2,2,0,0,0,0-.22,1.57,1.57,0,0,0-.37-1.13,1.25,1.25,0,0,0-.95-.39,1.71,1.71,0,0,0-1.14.43A2.6,2.6,0,0,0,312.8,139.66Z" transform="translate(-237.13 -55.25)"/><path class="cls-1" d="M317.6,143l1.2-5.76h.87l-.24,1.18a4,4,0,0,1,.87-1,1.44,1.44,0,0,1,.87-.32,1.64,1.64,0,0,1,.72.22l-.4.91a.9.9,0,0,0-.56-.19,1.49,1.49,0,0,0-1.06.58,4.4,4.4,0,0,0-.85,2.06l-.49,2.31Z" transform="translate(-237.13 -55.25)"/><path class="cls-1" d="M324.52,143l1-5h-.88l.16-.76h.88l.17-.81a3.27,3.27,0,0,1,.27-.89,1.08,1.08,0,0,1,.45-.45,1.8,1.8,0,0,1,.85-.17,5.16,5.16,0,0,1,1.08.16l-.18.85a3.76,3.76,0,0,0-.83-.13.59.59,0,0,0-.44.15,1.36,1.36,0,0,0-.26.68l-.13.61h1.1l-.16.76h-1.1l-1,5Z" transform="translate(-237.13 -55.25)"/><path class="cls-1" d="M327.64,140.86a4,4,0,0,1,1-2.8,2.78,2.78,0,0,1,2.15-.91,2.28,2.28,0,0,1,1.68.65,2.43,2.43,0,0,1,.63,1.76,4.27,4.27,0,0,1-.4,1.85,3,3,0,0,1-1.14,1.31,2.94,2.94,0,0,1-1.56.45,2.5,2.5,0,0,1-1.22-.29,1.94,1.94,0,0,1-.84-.81A2.49,2.49,0,0,1,327.64,140.86Zm1-.1A1.75,1.75,0,0,0,329,142a1.29,1.29,0,0,0,1,.42,1.76,1.76,0,0,0,.63-.12,2.07,2.07,0,0,0,.57-.39,2.42,2.42,0,0,0,.45-.6,3,3,0,0,0,.3-.71,3.26,3.26,0,0,0,.17-1,1.77,1.77,0,0,0-.39-1.22,1.3,1.3,0,0,0-1-.43,1.7,1.7,0,0,0-.84.22,2.43,2.43,0,0,0-.69.64,3.09,3.09,0,0,0-.45,1A4.35,4.35,0,0,0,328.62,140.76Z" transform="translate(-237.13 -55.25)"/><path class="cls-1" d="M333.64,143l1.2-5.76h.87l-.24,1.18a4,4,0,0,1,.87-1,1.44,1.44,0,0,1,.87-.32,1.64,1.64,0,0,1,.72.22l-.4.91a.9.9,0,0,0-.56-.19,1.49,1.49,0,0,0-1.06.58,4.4,4.4,0,0,0-.85,2.06l-.49,2.31Z" transform="translate(-237.13 -55.25)"/><path class="cls-1" d="M340.69,143l1.66-7.95h1.06L341.75,143Z" transform="translate(-237.13 -55.25)"/><path class="cls-1" d="M343.5,143l1.21-5.76h.89l-.21,1a4.62,4.62,0,0,1,1.08-.87,2.17,2.17,0,0,1,1-.27,1.55,1.55,0,0,1,1.1.38,1.37,1.37,0,0,1,.4,1,5.39,5.39,0,0,1-.15,1l-.73,3.48h-1l.77-3.65a4.54,4.54,0,0,0,.11-.78.62.62,0,0,0-.2-.47.81.81,0,0,0-.57-.18,1.93,1.93,0,0,0-1.34.54,3.59,3.59,0,0,0-.87,1.86l-.55,2.68Z" transform="translate(-237.13 -55.25)"/><path class="cls-1" d="M353.56,142.21a2.38,2.38,0,0,1-1.76,1,1.76,1.76,0,0,1-1.36-.6,2.58,2.58,0,0,1-.55-1.76,4.24,4.24,0,0,1,.44-1.92,3.2,3.2,0,0,1,1.07-1.3,2.36,2.36,0,0,1,1.3-.44,1.74,1.74,0,0,1,1.62,1l.65-3.1h1L354.29,143h-.9Zm-2.69-1.58a3,3,0,0,0,.12,1,1.23,1.23,0,0,0,.41.57,1,1,0,0,0,.68.23,1.53,1.53,0,0,0,1.21-.69,3.52,3.52,0,0,0,.73-2.28,1.48,1.48,0,0,0-.36-1.06,1.17,1.17,0,0,0-.9-.39,1.27,1.27,0,0,0-.64.16,1.84,1.84,0,0,0-.57.53,3.92,3.92,0,0,0-.68,2Z" transform="translate(-237.13 -55.25)"/><path class="cls-1" d="M359.78,142a2.89,2.89,0,0,1-2.12,1.17,1.52,1.52,0,0,1-1.07-.38,1.22,1.22,0,0,1-.41-.94,7.29,7.29,0,0,1,.18-1.24l.7-3.33h1l-.77,3.68a3.44,3.44,0,0,0-.1.72.66.66,0,0,0,.2.51.82.82,0,0,0,.58.18,1.79,1.79,0,0,0,.8-.2,2.26,2.26,0,0,0,.68-.54,2.92,2.92,0,0,0,.47-.81,6.79,6.79,0,0,0,.27-1l.52-2.49h1l-1.2,5.76h-.9Z" transform="translate(-237.13 -55.25)"/><path class="cls-1" d="M362.12,141.07l1-.06a1.69,1.69,0,0,0,.13.72,1,1,0,0,0,.48.49,1.62,1.62,0,0,0,.81.19,1.51,1.51,0,0,0,1-.26.76.76,0,0,0,.33-.61.73.73,0,0,0-.2-.48,3,3,0,0,0-1-.56,10.14,10.14,0,0,1-1-.47,1.65,1.65,0,0,1-.55-.53,1.31,1.31,0,0,1-.18-.69,1.54,1.54,0,0,1,.54-1.17,2.2,2.2,0,0,1,1.52-.49,2.4,2.4,0,0,1,1.65.51,1.73,1.73,0,0,1,.58,1.32l-1,.06a1.07,1.07,0,0,0-.36-.82,1.41,1.41,0,0,0-1-.31,1.21,1.21,0,0,0-.8.24.67.67,0,0,0-.28.5.61.61,0,0,0,.25.48,3.64,3.64,0,0,0,.84.43,5.87,5.87,0,0,1,1.42.77,1.47,1.47,0,0,1,.46,1.1,1.61,1.61,0,0,1-.26.84,1.81,1.81,0,0,1-.8.65,3,3,0,0,1-1.27.25,2.87,2.87,0,0,1-1.7-.49A1.74,1.74,0,0,1,362.12,141.07Z" transform="translate(-237.13 -55.25)"/><path class="cls-1" d="M369.87,142.24l-.16.81a2.84,2.84,0,0,1-.69.09,1.42,1.42,0,0,1-.93-.29.73.73,0,0,1-.26-.59,6.28,6.28,0,0,1,.14-.87l.7-3.35h-.77l.15-.76h.78l.3-1.41,1.12-.68-.44,2.09h1l-.17.76h-1l-.66,3.18a5.26,5.26,0,0,0-.13.73.33.33,0,0,0,.1.27.5.5,0,0,0,.33.09A2,2,0,0,0,369.87,142.24Z" transform="translate(-237.13 -55.25)"/><path class="cls-1" d="M370.66,143l1.2-5.76h.87l-.24,1.18a4,4,0,0,1,.87-1,1.44,1.44,0,0,1,.87-.32,1.64,1.64,0,0,1,.72.22l-.4.91a.9.9,0,0,0-.56-.19,1.5,1.5,0,0,0-1.06.58,4.4,4.4,0,0,0-.85,2.06l-.49,2.31Z" transform="translate(-237.13 -55.25)"/><path class="cls-1" d="M374.32,143l1.2-5.76h1L375.3,143Zm1.43-6.83.23-1.12h1l-.23,1.12Z" transform="translate(-237.13 -55.25)"/><path class="cls-1" d="M381.05,141.08l1,.1a2.88,2.88,0,0,1-.95,1.35,2.58,2.58,0,0,1-1.76.64,2.48,2.48,0,0,1-1.18-.29,2,2,0,0,1-.81-.86,2.84,2.84,0,0,1-.28-1.29,4.11,4.11,0,0,1,.44-1.83,3,3,0,0,1,1.13-1.31,2.76,2.76,0,0,1,1.5-.44,2.18,2.18,0,0,1,1.64.64,2.43,2.43,0,0,1,.62,1.75,5.31,5.31,0,0,1-.08.87H378c0,.11,0,.21,0,.3a1.84,1.84,0,0,0,.37,1.23,1.15,1.15,0,0,0,.91.43,1.73,1.73,0,0,0,1-.33A2.11,2.11,0,0,0,381.05,141.08Zm-2.85-1.42h3.23a2,2,0,0,0,0-.22,1.62,1.62,0,0,0-.37-1.13,1.25,1.25,0,0,0-.95-.39,1.75,1.75,0,0,0-1.15.43A2.66,2.66,0,0,0,378.2,139.66Z" transform="translate(-237.13 -55.25)"/><path class="cls-1" d="M383.09,141.07l1-.06a1.85,1.85,0,0,0,.13.72,1,1,0,0,0,.48.49,1.68,1.68,0,0,0,.82.19,1.48,1.48,0,0,0,1-.26.76.76,0,0,0,.33-.61.73.73,0,0,0-.2-.48,3,3,0,0,0-1-.56c-.51-.23-.85-.38-1-.47a1.75,1.75,0,0,1-.55-.53,1.31,1.31,0,0,1-.18-.69,1.54,1.54,0,0,1,.54-1.17,2.22,2.22,0,0,1,1.52-.49,2.4,2.4,0,0,1,1.65.51,1.74,1.74,0,0,1,.59,1.32l-1,.06a1.11,1.11,0,0,0-.37-.82,1.41,1.41,0,0,0-1-.31,1.17,1.17,0,0,0-.79.24.65.65,0,0,0-.29.5.64.64,0,0,0,.25.48,4.17,4.17,0,0,0,.84.43,5.87,5.87,0,0,1,1.42.77,1.48,1.48,0,0,1,.47,1.1,1.54,1.54,0,0,1-.27.84,1.76,1.76,0,0,1-.8.65,2.94,2.94,0,0,1-1.27.25,2.87,2.87,0,0,1-1.7-.49A1.78,1.78,0,0,1,383.09,141.07Z" transform="translate(-237.13 -55.25)"/><polygon class="cls-2" points="0 0 70.85 0 35.43 58.47 12.06 19.54 30.26 19.54 31.71 17.24 10.53 17.24 9 14.65 33.35 14.65 34.81 12.36 7.47 12.36 5.93 9.77 36.45 9.77 37.99 7.33 4.59 7.33 3.06 4.89 39.54 4.89 41.17 2.3 1.53 2.3 0 0"/><path class="cls-3" d="M278.3,57.55" transform="translate(-237.13 -55.25)"/><path class="cls-3" d="M267.39,74.79" transform="translate(-237.13 -55.25)"/><rect class="cls-4" x="42.91" y="5.29" width="54.06" height="2.65"/><rect class="cls-4" x="42.91" width="54.06" height="2.49"/><rect class="cls-4" x="42.91" y="10.58" width="54.06" height="2.8"/><polygon class="cls-4" points="42.91 21.17 42.91 23.97 56.33 23.97 56.33 58.37 83.63 58.37 83.63 23.97 96.97 23.97 96.97 21.17 42.91 21.17"/><rect class="cls-4" x="42.91" y="15.88" width="54.06" height="2.8"/><polygon class="cls-4" points="124.27 34.24 124.27 0 97.04 0 96.97 0 96.97 2.49 96.97 5.29 96.97 7.94 96.97 10.59 96.97 13.39 96.97 15.88 96.97 18.68 96.97 21.17 96.97 23.97 96.97 37.05 151.1 37.05 151.1 34.24 124.27 34.24"/><rect class="cls-4" x="96.98" y="55.57" width="54.13" height="2.8"/><rect class="cls-4" x="96.98" y="44.98" width="54.13" height="2.64"/><rect class="cls-4" x="96.98" y="39.69" width="54.13" height="2.65"/><rect class="cls-4" x="96.98" y="50.27" width="54.13" height="2.8"/></svg>